<svg xmlns="http://www.w3.org/2000/svg" xmlns:xlink="http://www.w3.org/1999/xlink" width="1152" zoomAndPan="magnify" viewBox="0 0 864 314.999992" height="420" preserveAspectRatio="xMidYMid meet" version="1.0"><defs><g/></defs><g fill="#190c2f" fill-opacity="1"><g transform="translate(31.492399, 245.005706)"><g><path d="M 96.171875 -143.859375 C 98.027344 -148.101562 100.941406 -149.953125 105.179688 -149.953125 C 109.417969 -149.953125 112.332031 -148.101562 113.921875 -143.859375 L 168.234375 0 L 202.941406 0 L 142.535156 -158.960938 C 136.179688 -175.652344 123.992188 -182.011719 105.445312 -182.011719 C 86.632812 -182.011719 74.449219 -175.652344 67.824219 -158.960938 L 5.035156 0 L 39.476562 0 Z M 96.171875 -143.859375 "/></g></g></g><g fill="#190c2f" fill-opacity="1"><g transform="translate(239.20304, 245.005706)"><g><path d="M 20.398438 -178.832031 L 20.398438 -56.960938 C 20.398438 -19.339844 40.003906 0 78.15625 0 L 115.777344 0 C 153.929688 0 173.800781 -19.339844 173.800781 -56.960938 L 173.800781 -178.832031 L 143.066406 -178.832031 L 143.066406 -59.347656 C 143.066406 -41.59375 133.792969 -31.261719 113.65625 -31.261719 L 81.867188 -31.261719 C 61.199219 -31.261719 52.191406 -41.59375 52.191406 -59.347656 L 52.191406 -178.832031 Z M 20.398438 -178.832031 "/></g></g></g><g fill="#190c2f" fill-opacity="1"><g transform="translate(433.136917, 245.005706)"><g><path d="M 21.195312 -178.832031 L 21.195312 -147.570312 L 119.222656 -147.570312 C 136.441406 -147.570312 144.125 -136.707031 144.125 -123.992188 C 144.125 -111.273438 136.972656 -99.085938 119.222656 -99.085938 L 49.542969 -99.085938 C 29.9375 -99.085938 21.460938 -90.875 21.460938 -70.738281 L 21.460938 0 L 52.722656 0 L 52.722656 -64.644531 C 52.722656 -67.824219 54.3125 -69.148438 57.226562 -69.148438 L 103.855469 -69.148438 L 144.65625 0 L 179.363281 0 L 137.765625 -71.53125 C 165.054688 -79.214844 175.652344 -103.0625 175.652344 -125.316406 C 175.652344 -153.929688 158.433594 -178.832031 118.164062 -178.832031 Z M 21.195312 -178.832031 "/></g></g></g><g fill="#190c2f" fill-opacity="1"><g transform="translate(622.301972, 245.005706)"><g><path d="M 96.171875 -143.859375 C 98.027344 -148.101562 100.941406 -149.953125 105.179688 -149.953125 C 109.417969 -149.953125 112.332031 -148.101562 113.921875 -143.859375 L 168.234375 0 L 202.941406 0 L 142.535156 -158.960938 C 136.179688 -175.652344 123.992188 -182.011719 105.445312 -182.011719 C 86.632812 -182.011719 74.449219 -175.652344 67.824219 -158.960938 L 5.035156 0 L 39.476562 0 Z M 96.171875 -143.859375 "/></g></g></g></svg>