<svg xmlns="http://www.w3.org/2000/svg" xmlns:xlink="http://www.w3.org/1999/xlink" width="1152" zoomAndPan="magnify" viewBox="0 0 864 314.999992" height="420" preserveAspectRatio="xMidYMid meet" version="1.0"><defs><g/></defs><g fill="#ffffff" fill-opacity="1"><g transform="translate(31.555452, 243.179523)"><g><path d="M 96.164062 -143.851562 C 98.019531 -148.089844 100.933594 -149.945312 105.171875 -149.945312 C 109.410156 -149.945312 112.324219 -148.089844 113.914062 -143.851562 L 168.222656 0 L 202.929688 0 L 142.527344 -158.953125 C 136.167969 -175.640625 123.980469 -182 105.4375 -182 C 86.628906 -182 74.441406 -175.640625 67.820312 -158.953125 L 5.035156 0 L 39.472656 0 Z M 96.164062 -143.851562 "/></g></g></g><g fill="#ffffff" fill-opacity="1"><g transform="translate(239.241545, 243.179523)"><g><path d="M 20.398438 -178.820312 L 20.398438 -56.957031 C 20.398438 -19.339844 40.003906 0 78.152344 0 L 115.769531 0 C 153.917969 0 173.785156 -19.339844 173.785156 -56.957031 L 173.785156 -178.820312 L 143.054688 -178.820312 L 143.054688 -59.34375 C 143.054688 -41.59375 133.785156 -31.261719 113.648438 -31.261719 L 81.859375 -31.261719 C 61.195312 -31.261719 52.1875 -41.59375 52.1875 -59.34375 L 52.1875 -178.820312 Z M 20.398438 -178.820312 "/></g></g></g><g fill="#ffffff" fill-opacity="1"><g transform="translate(433.152538, 243.179523)"><g><path d="M 21.195312 -178.820312 L 21.195312 -147.558594 L 119.214844 -147.558594 C 136.433594 -147.558594 144.117188 -136.699219 144.117188 -123.980469 C 144.117188 -111.265625 136.964844 -99.078125 119.214844 -99.078125 L 49.539062 -99.078125 C 29.9375 -99.078125 21.457031 -90.867188 21.457031 -70.734375 L 21.457031 0 L 52.71875 0 L 52.71875 -64.640625 C 52.71875 -67.820312 54.308594 -69.144531 57.222656 -69.144531 L 103.847656 -69.144531 L 144.644531 0 L 179.351562 0 L 137.757812 -71.527344 C 165.042969 -79.210938 175.640625 -103.054688 175.640625 -125.308594 C 175.640625 -153.917969 158.421875 -178.820312 118.152344 -178.820312 Z M 21.195312 -178.820312 "/></g></g></g><g fill="#ffffff" fill-opacity="1"><g transform="translate(622.295232, 243.179523)"><g><path d="M 96.164062 -143.851562 C 98.019531 -148.089844 100.933594 -149.945312 105.171875 -149.945312 C 109.410156 -149.945312 112.324219 -148.089844 113.914062 -143.851562 L 168.222656 0 L 202.929688 0 L 142.527344 -158.953125 C 136.167969 -175.640625 123.980469 -182 105.4375 -182 C 86.628906 -182 74.441406 -175.640625 67.820312 -158.953125 L 5.035156 0 L 39.472656 0 Z M 96.164062 -143.851562 "/></g></g></g></svg>